<?xml version="1.0" encoding="UTF-8" standalone="no"?>
<!-- Generator: Adobe Illustrator 18.0.0, SVG Export Plug-In . SVG Version: 6.00 Build 0)  -->

<svg
   xmlns:dc="http://purl.org/dc/elements/1.1/"
   xmlns:cc="http://creativecommons.org/ns#"
   xmlns:rdf="http://www.w3.org/1999/02/22-rdf-syntax-ns#"
   xmlns:svg="http://www.w3.org/2000/svg"
   xmlns="http://www.w3.org/2000/svg"
   xmlns:sodipodi="http://sodipodi.sourceforge.net/DTD/sodipodi-0.dtd"
   xmlns:inkscape="http://www.inkscape.org/namespaces/inkscape"
   version="1.1"
   id="Capa_1"
   x="0px"
   y="0px"
   viewBox="0 0 491.695 491.695"
   style="enable-background:new 0 0 491.695 491.695;"
   xml:space="preserve"
   sodipodi:docname="baixar_fatura.svg"
   inkscape:version="0.92.3 (2405546, 2018-03-11)"><metadata
   id="metadata51"><rdf:RDF><cc:Work
       rdf:about=""><dc:format>image/svg+xml</dc:format><dc:type
         rdf:resource="http://purl.org/dc/dcmitype/StillImage" /></cc:Work></rdf:RDF></metadata><defs
   id="defs49" /><sodipodi:namedview
   pagecolor="#ffffff"
   bordercolor="#666666"
   borderopacity="1"
   objecttolerance="10"
   gridtolerance="10"
   guidetolerance="10"
   inkscape:pageopacity="0"
   inkscape:pageshadow="2"
   inkscape:window-width="1920"
   inkscape:window-height="1017"
   id="namedview47"
   showgrid="false"
   inkscape:zoom="0.95994467"
   inkscape:cx="253.79829"
   inkscape:cy="200.07526"
   inkscape:window-x="-8"
   inkscape:window-y="-8"
   inkscape:window-maximized="1"
   inkscape:current-layer="Capa_1" />
<g
   id="g14">
	<path
   d="M436.714,0H149.471c-16.438,0-29.812,13.374-29.812,29.812v66.714c-54.49,15.594-94.489,65.857-94.489,125.288   c0,59.431,39.998,109.694,94.489,125.288v114.783c0,16.438,13.374,29.812,29.812,29.812h234.733c2.785,0,5.455-1.106,7.425-3.075   l71.821-71.822c1.969-1.969,3.075-4.64,3.075-7.425V29.812C466.525,13.374,453.152,0,436.714,0z M149.471,21h287.243   c4.858,0,8.811,3.953,8.811,8.812v31.689H140.659V29.812C140.659,24.953,144.612,21,149.471,21z M46.17,221.813   c0-60.263,49.027-109.29,109.29-109.29c60.263,0,109.29,49.027,109.29,109.29s-49.027,109.291-109.29,109.291   C95.197,331.104,46.17,282.076,46.17,221.813z M140.659,461.884V351.258c4.86,0.552,9.797,0.846,14.802,0.846   c39.135,0,74.292-17.347,98.195-44.752h64.336c5.799,0,10.5-4.701,10.5-10.5s-4.701-10.5-10.5-10.5h-49.381   c9.133-15.95,14.984-34.005,16.644-53.242h32.736c5.799,0,10.5-4.701,10.5-10.5c0-5.799-4.701-10.5-10.5-10.5h-32.603   c-1.42-19.194-7.02-37.242-15.886-53.241h48.488c5.799,0,10.5-4.701,10.5-10.5c0-5.799-4.701-10.5-10.5-10.5h-62.974   c-23.918-28.323-59.67-46.347-99.558-46.347c-5.005,0-9.942,0.294-14.802,0.846v-9.867h304.866v316.372h-42.009   c-16.439,0-29.811,13.374-29.811,29.811v42.011H149.471C144.612,470.695,140.659,466.743,140.659,461.884z M394.705,455.845v-27.16   c0-4.859,3.953-8.811,8.811-8.811h27.16L394.705,455.845z"
   id="path2" />
	<path
   d="M359.246,158.869h34.87c5.799,0,10.5-4.701,10.5-10.5c0-5.799-4.701-10.5-10.5-10.5h-34.87c-5.799,0-10.5,4.701-10.5,10.5   C348.746,154.168,353.447,158.869,359.246,158.869z"
   id="path4" />
	<path
   d="M359.246,233.11h34.87c5.799,0,10.5-4.701,10.5-10.5c0-5.799-4.701-10.5-10.5-10.5h-34.87c-5.799,0-10.5,4.701-10.5,10.5   C348.746,228.409,353.447,233.11,359.246,233.11z"
   id="path6" />
	<path
   d="M359.246,307.352h34.87c5.799,0,10.5-4.701,10.5-10.5s-4.701-10.5-10.5-10.5h-34.87c-5.799,0-10.5,4.701-10.5,10.5   S353.447,307.352,359.246,307.352z"
   id="path8" />
	<path
   d="M394.116,381.593c5.799,0,10.5-4.701,10.5-10.5s-4.701-10.5-10.5-10.5h-98.225c-5.799,0-10.5,4.701-10.5,10.5   s4.701,10.5,10.5,10.5H394.116z"
   id="path10" />
	<path
   d="m 236.982,168.845 -12.81,-12.81 c -3.45,-3.449 -8.036,-5.349 -12.915,-5.349 -4.879,0 -9.465,1.9 -12.915,5.349 l -67.19,67.19 -18.573,-18.573 c -3.449,-3.448 -8.036,-5.348 -12.914,-5.348 -4.878,0 -9.465,1.9 -12.914,5.349 l -12.813,12.812 c -7.12,7.121 -7.12,18.708 10e-4,25.829 l 44.297,44.296 c 3.45,3.451 8.037,5.351 12.916,5.351 h 0.001 c 4.878,0 9.465,-1.9 12.913,-5.349 l 92.917,-92.917 c 7.12,-7.121 7.12,-18.709 -0.001,-25.83 z m -87.46787,93.0612 c -99.676087,153.19254 -49.838043,76.59627 0,0 z"
   id="path12"
   style="fill:#000000"
   inkscape:connector-curvature="0"
   sodipodi:nodetypes="scscccsccccssccscc" />
</g>
<g
   id="g16">
</g>
<g
   id="g18">
</g>
<g
   id="g20">
</g>
<g
   id="g22">
</g>
<g
   id="g24">
</g>
<g
   id="g26">
</g>
<g
   id="g28">
</g>
<g
   id="g30">
</g>
<g
   id="g32">
</g>
<g
   id="g34">
</g>
<g
   id="g36">
</g>
<g
   id="g38">
</g>
<g
   id="g40">
</g>
<g
   id="g42">
</g>
<g
   id="g44">
</g>
</svg>